<?xml version="1.0" encoding="utf-8"?>
<!-- Generator: Adobe Illustrator 24.1.3, SVG Export Plug-In . SVG Version: 6.00 Build 0)  -->
<svg version="1.1" id="Layer_1" xmlns="http://www.w3.org/2000/svg" xmlns:xlink="http://www.w3.org/1999/xlink" x="0px" y="0px"
	 viewBox="0 0 1920 1080" style="enable-background:new 0 0 1920 1080;" xml:space="preserve">
<style type="text/css">
	.st0{fill:#E2A620;}
</style>
<path class="st0" d="M767.1,572.6c-32.4-32.7-63.1-63.6-93.8-94.3C578,383,482.4,287.6,386.8,192.4c-19.7-19.7-28.3-42.6-20.5-69.9
	c7.1-25.3,24-41.8,49.5-47.8c25.9-6.1,48.2,1.7,67,20.6c37.2,37.4,74.6,74.4,111.8,111.6c87.3,87.2,174.5,174.2,261.8,261.4
	c1.9,1.9,4.1,3.9,8.9,8.2c2.6-3.9,4.5-8,7.6-11c123.7-124,247.5-248,371.4-371.9c27.2-27.3,66.6-29.4,94.7-5.4
	c28.3,24.4,31.6,67.7,6.9,96.1c-3,3.5-6.5,6.7-9.7,10.2c-122.4,122.5-244.7,244.9-367.1,367.2c-3,3-7.1,5-10.6,7.4
	c0,1.5,0,3-0.2,4.8c3.9,2.6,8.2,5,11.5,8.2c123.7,123.1,247.1,246.4,370.8,369.8c19.2,19,27.2,41.5,20.8,67.9
	c-12.5,51.5-75.5,69.2-113.7,31.8c-35.5-34.4-70-69.7-104.9-104.7C1052.5,856.4,962.4,766,872,675.8c-2.4-2.4-4.8-4.5-10.4-10
	c-2.2,3.9-3.7,8.4-6.7,11.3C731.7,800.6,608.2,924.2,485,1047.7c-21,21-45,29.4-73.7,19.9c-45.8-15.1-61.4-71.8-30.1-108.6
	c3-3.5,6.5-6.9,9.7-10.2C513.1,826.2,635.2,703.5,757.4,581C760,578,763.2,575.8,767.1,572.6z"/>
</svg>
