<?xml version="1.0" encoding="utf-8"?>
<!-- Generator: Adobe Illustrator 24.1.3, SVG Export Plug-In . SVG Version: 6.00 Build 0)  -->
<svg version="1.1" id="Layer_1" xmlns="http://www.w3.org/2000/svg" xmlns:xlink="http://www.w3.org/1999/xlink" x="0px" y="0px"
	 viewBox="0 0 1920 1080" style="enable-background:new 0 0 1920 1080;" xml:space="preserve">
<style type="text/css">
	.st0{fill:#E2A620;}
</style>
<g>
	<path class="st0" d="M918.1,1070c-144.2,0-288.3,0-432.5,0c-35.8,0-65.1-42.7-66.4-92.9c-1.2-46.6,12.1-79.6,41.6-100.1
		c7-4.8,14.5-7,22.4-7c290.6,0.1,581.1,0,871.7,0.1c31.9,0,62.8,44.1,63.5,88.9c0.5,27.6-1.9,53.2-15.2,75.6
		c-13.4,22.4-29.8,35.3-50.4,35.3C1207.9,1070.1,1063,1070,918.1,1070z"/>
	<path class="st0" d="M920.1,470c142.7,0,285.3,1,428-0.7c37.5-0.4,70.9,46,70.9,98.7c0,44.8-21,90.1-52.9,99.8
		c-4,1.2-7.9,2.1-11.9,2.1c-290.2,0-580.3,0.1-870.5,0c-32.7,0-63.5-43.7-64.3-89.4c-0.5-27.7,2.1-53.3,15.4-75.5
		c13.1-21.8,29.3-34.8,49.5-34.9C629.6,469.8,774.8,470,920.1,470z"/>
	<path class="st0" d="M918.2,270c-144.1,0-288.3,0-432.4,0c-35.6,0-64.8-43.1-66.6-92.8c-2-53.2,21.3-94.9,53.3-105.4
		c4.1-1.3,8-1.7,12-1.7c289.8-0.1,579.6-0.1,869.4,0c33.4,0,64,43.6,64.7,90.4c0.4,27.1-2.2,52.1-15.2,74
		c-13.3,22.4-29.7,35.4-50.4,35.4C1208,270.1,1063.1,270,918.2,270z"/>
</g>
</svg>
